<svg width="32" height="38" fill="none" xmlns="http://www.w3.org/2000/svg"><path d="M4.845 38.034h24.257c1.637 0 2.98-1.375 2.98-3.051V10.035c0-1.612-1.25-2.94-2.795-3.02V3.632c0-1.96-1.544-3.541-3.458-3.541H4.845C2.127.09-.081 2.336-.081 5.134c0-.315.014 4.083 0 27.857 0 2.782 2.208 5.043 4.926 5.043Zm16.876-8.743h-5.358c-.85 0-1.544-.711-1.544-1.58 0-.87.695-1.582 1.544-1.582h5.358c.85 0 1.544.712 1.544 1.581 0 .87-.695 1.581-1.544 1.581Zm1.806-7.209h-8.97c-.85 0-1.544-.711-1.544-1.58 0-.886.694-1.582 1.544-1.582h8.97c.865 0 1.544.696 1.544 1.581 0 .87-.68 1.581-1.544 1.581ZM4.844 3.253h20.984c.2 0 .37.158.37.38V7H4.845c-2.145 0-2.586-3.747 0-3.747ZM3.022 9.814h.031c.396.18 1.079.348 1.791.348h1.174v24.71H4.844c-1.004 0-1.837-.838-1.837-1.881l.015-23.177Z" fill="#4896D2"/></svg>